<svg id="add_block" xmlns="http://www.w3.org/2000/svg" viewBox="0 0 27.652 27.652">
  <defs>
    <style>
      .cls-1 {
        fill: #fa6c3f;
      }

      .cls-2 {
        fill: #fff;
      }
    </style>
  </defs>
  <rect id="Rectangle_38" data-name="Rectangle 38" class="cls-1" width="27.652" height="27.652" rx="3" transform="translate(0 0)"/>
  <path id="Path_9" data-name="Path 9" class="cls-2" d="M101.322,277h11.235a1.122,1.122,0,0,1,1.122,1.122h0a1.122,1.122,0,0,1-1.122,1.122H101.322a1.122,1.122,0,0,1-1.122-1.122h0A1.121,1.121,0,0,1,101.322,277Z" transform="translate(-97.638 -269.879)"/>
  <path id="Path_10" data-name="Path 10" class="cls-2" d="M101.322,452.8h11.235a1.122,1.122,0,0,1,1.122,1.122h0a1.122,1.122,0,0,1-1.122,1.122H101.322a1.122,1.122,0,0,1-1.122-1.122h0A1.119,1.119,0,0,1,101.322,452.8Z" transform="translate(-97.638 -441.184)"/>
  <path id="Path_11" data-name="Path 11" class="cls-2" d="M101.322,628.5h6.743a1.122,1.122,0,0,1,1.122,1.123h0a1.122,1.122,0,0,1-1.122,1.122h-6.743a1.122,1.122,0,0,1-1.122-1.122h0A1.121,1.121,0,0,1,101.322,628.5Z" transform="translate(-97.638 -612.392)"/>
  <path id="Path_12" data-name="Path 12" class="cls-2" d="M546.34,457.292v-3.37a1.122,1.122,0,0,0-1.122-1.122h0a1.122,1.122,0,0,0-1.122,1.122v3.37h-3.373a1.122,1.122,0,0,0-1.122,1.122h0a1.122,1.122,0,0,0,1.122,1.122h3.37v3.37a1.122,1.122,0,0,0,1.123,1.122h0a1.122,1.122,0,0,0,1.122-1.122V459.54h3.37a1.122,1.122,0,0,0,1.123-1.122h0a1.122,1.122,0,0,0-1.123-1.123H546.34Z" transform="translate(-525.803 -441.185)"/>
</svg>
