<?xml version="1.0" encoding="utf-8"?>
<!-- Generator: Adobe Illustrator 23.0.6, SVG Export Plug-In . SVG Version: 6.00 Build 0)  -->
<svg version="1.1" id="Capa_1" xmlns="http://www.w3.org/2000/svg" xmlns:xlink="http://www.w3.org/1999/xlink" x="0px" y="0px"
	 viewBox="0 0 512 512" style="enable-background:new 0 0 512 512;" xml:space="preserve">
<style type="text/css">
	.st0{fill:#F19D25;}
</style>
<path class="st0" d="M424,368.9c-5.3-13.3-8-27.3-8-41.6V224c0-71.7-47.7-131.8-112.8-152.1C299.3,49.3,279.7,32,256,32
	s-43.3,17.3-47.2,39.9C143.7,92.2,96,152.3,96,224v103.3c0,14.3-2.7,28.3-8,41.6l-22.8,57.1c-2,4.9-1.4,10.5,1.6,14.9
	c3,4.4,7.9,7,13.3,7h121.6c11.3,19.3,31.6,32,54.4,32s43-12.7,54.4-32H432c5.3,0,10.3-2.6,13.3-7c3-4.4,3.6-10,1.6-14.9
	C446.9,426.1,424,368.9,424,368.9L424,368.9z M103.6,416l14.1-35.2c6.8-17.1,10.3-35.1,10.3-53.5V224c0-70.6,57.4-128,128-128
	s128,57.4,128,128v103.3c0,18.4,3.5,36.4,10.3,53.5l14.1,35.2H103.6z"/>
<path class="st0" d="M44.7,143.3c-8.2-4.4-18.3-0.9-22.1,7.6C7.8,183.8,0,219.8,0,256s7.8,72.2,22.6,105.1c3.8,8.4,14,11.9,22.1,7.6
	l0,0c7.5-4,10.5-13.1,7-20.8C38.6,319,32,288.1,32,256c0-32.1,6.6-63,19.7-91.9C55.2,156.4,52.2,147.3,44.7,143.3L44.7,143.3z"/>
<path class="st0" d="M467.3,143.3L467.3,143.3c-7.5,4-10.5,13.1-7,20.8C473.4,193,480,223.9,480,256c0,32.1-6.6,63-19.7,91.9
	c-3.5,7.7-0.5,16.8,7,20.8l0,0c8.2,4.4,18.3,0.9,22.1-7.6C504.2,328.2,512,292.2,512,256c0-36.2-7.8-72.2-22.6-105.1
	C485.6,142.4,475.5,139,467.3,143.3z"/>
</svg>
