<?xml version="1.0" encoding="utf-8"?>
<!-- Generator: Adobe Illustrator 23.0.3, SVG Export Plug-In . SVG Version: 6.00 Build 0)  -->
<svg version="1.1" id="Слой_1" xmlns="http://www.w3.org/2000/svg" xmlns:xlink="http://www.w3.org/1999/xlink" x="0px" y="0px"
	 viewBox="0 0 1080 1080" style="enable-background:new 0 0 1080 1080;" xml:space="preserve">
<style type="text/css">
	.st0{fill:#494949;}
</style>
<path class="st0" d="M738.1,978.1l173.2-173.2L738.1,631.6c-3.3-3.3-6.7-8.3-6.7-15c0-5,1.7-10,6.7-15l55-55c3.3-3.3,8.3-6.7,15-6.7
	s10,1.7,15,6.7l241.5,243.2c3.3,3.3,6.7,8.3,6.7,15c0,5-1.7,10-6.7,15L821.4,1063c-3.3,3.3-8.3,6.7-15,6.7s-10-1.7-15-6.7l-55-55
	c-3.3-3.3-6.7-8.3-6.7-15S734.8,983.1,738.1,978.1z"/>
<path class="st0" d="M348.8,463.4c0,6.7-3.3,11.7-6.7,15l-55,55c-5,5-8.3,6.7-15,6.7c-6.7,0-11.7-3.3-15-6.7L14,290.1
	c-5-5-6.7-10-6.7-15c0-6.7,3.3-11.7,6.7-15L255.5,17c5-5,8.3-6.7,15-6.7s11.7,3.3,15,6.7l55,55c5,5,6.7,10,6.7,15
	c0,6.7-3.3,11.7-6.7,15L167.2,275.2l173.2,173.2C343.8,453.4,348.8,456.7,348.8,463.4z"/>
</svg>
