<svg xmlns="http://www.w3.org/2000/svg" viewBox="0 0 36.032 36.032">
  <defs>
    <style>
      .cls-1 {
        fill: rgba(0,0,0,0);
        stroke: #fff;
      }

      .cls-2, .cls-3, .cls-6 {
        fill: #fff;
      }

      .cls-4, .cls-6 {
        stroke: none;
      }

      .cls-5 {
        fill: none;
      }
    </style>
  </defs>
  <g id="Group_12" data-name="Group 12" transform="translate(-1230.943 -23.025)">
    <g id="Ellipse_3" data-name="Ellipse 3" class="cls-1" transform="translate(1230.943 23.025)">
      <ellipse class="cls-4" cx="18.016" cy="18.016" rx="18.016" ry="18.016"/>
      <ellipse class="cls-5" cx="18.016" cy="18.016" rx="17.516" ry="17.516"/>
    </g>
    <g id="Intersection_1" data-name="Intersection 1" class="cls-2" transform="translate(1236.674 43.536)">
      <path class="cls-4" d="M 11.27088356018066 14.99159812927246 C 7.285430431365967 14.76417827606201 3.47636079788208 13.16374206542969 0.5161499977111816 10.47788238525391 C 0.6882304549217224 8.430499076843262 1.399981021881104 6.4659104347229 2.58187460899353 4.78183126449585 C 3.85421347618103 2.966643810272217 5.589389324188232 1.567100882530212 7.617913722991943 0.7154448628425598 C 8.61879825592041 2.151150226593018 9.457751274108887 3.321561098098755 10.11440467834473 4.198221683502197 C 11.58577442169189 6.16253137588501 11.82956504821777 6.258201599121094 12.13380432128906 6.258201599121094 C 12.44797515869141 6.258201599121094 12.6930046081543 6.16016149520874 14.0745849609375 4.147201538085938 C 14.6866455078125 3.255430221557617 15.46454811096191 2.066621065139771 16.38928985595703 0.6099073886871338 C 18.4825325012207 1.429358124732971 20.27925872802734 2.825418949127197 21.60364532470703 4.666031360626221 C 22.88720893859863 6.449096202850342 23.63369941711426 8.540949821472168 23.76993370056152 10.7300500869751 C 22.36588859558105 11.9505786895752 20.78942489624023 12.9336051940918 19.08088493347168 13.65355110168457 C 17.24874305725098 14.42556667327881 15.30855464935303 14.87545013427734 13.31360626220703 14.99080181121826 L 12.13380432128906 14.99080181121826 C 11.87762546539307 14.99080181121826 11.58765316009521 14.9910831451416 11.27088356018066 14.99159812927246 Z"/>
      <path class="cls-6" d="M 11.28481483459473 14.49157428741455 C 11.59615516662598 14.49107456207275 11.88135242462158 14.49080181121826 12.13380432128906 14.49080181121826 L 13.29903125762939 14.49080181121826 C 15.23182201385498 14.37740325927734 17.1117057800293 13.9407377243042 18.8867244720459 13.19278144836426 C 20.47014999389648 12.52556991577148 21.93684959411621 11.62568378448486 23.25282669067383 10.51467227935791 C 23.08355712890625 8.509466171264648 22.37786102294922 6.597361087799072 21.19779396057129 4.958061695098877 C 20.01075553894043 3.308345794677734 18.42741394042969 2.03169584274292 16.58614730834961 1.231985807418823 C 15.75643730163574 2.533477067947388 15.05178737640381 3.606994390487671 14.48682498931885 4.430141448974609 C 13.0878849029541 6.468411445617676 12.72806453704834 6.758201599121094 12.13380432128906 6.758201599121094 C 11.56206512451172 6.758201599121094 11.19649505615234 6.476851463317871 9.714224815368652 4.497971534729004 C 9.106523513793945 3.686671495437622 8.344265937805176 2.626178503036499 7.443430423736572 1.338821768760681 C 5.660059928894043 2.164135932922363 4.13149356842041 3.442176580429077 2.99114465713501 5.069051265716553 C 1.907608985900879 6.61298942565918 1.237007617950439 8.403285026550293 1.037842631340027 10.27361869812012 C 3.882623195648193 12.77957248687744 7.501424789428711 14.27241039276123 11.28481483459473 14.49157428741455 M 11.25715446472168 15.49162101745605 C 6.915514945983887 15.24744129180908 2.984264612197876 13.46551132202148 -0.0002652731200214475 10.68219184875488 C 0.1413947194814682 8.454691886901855 0.8850347399711609 6.329261302947998 2.17260479927063 4.494601249694824 C 3.577504634857178 2.490301370620728 5.524204730987549 0.9720014333724976 7.801204681396484 0.1035014614462852 C 9.59400463104248 2.683801412582397 11.79990482330322 5.758201599121094 12.13380432128906 5.758201599121094 C 12.47130489349365 5.758201599121094 14.52240467071533 2.627101421356201 16.18380546569824 1.462402337892854e-06 C 18.53370475769043 0.8298014402389526 20.54790496826172 2.342701435089111 22.0095043182373 4.374001502990723 C 23.40173530578613 6.308031558990479 24.18197441101074 8.570431709289551 24.28181457519531 10.94540119171143 C 21.33787536621094 13.57471179962158 17.52562522888184 15.25139141082764 13.32798480987549 15.49080181121826 L 12.13380432128906 15.49080181121826 C 11.87394428253174 15.49080181121826 11.57930469512939 15.49109172821045 11.25715446472168 15.49162101745605 Z"/>
    </g>
    <ellipse id="Ellipse_1" data-name="Ellipse 1" class="cls-3" cx="7.566" cy="7.566" rx="7.566" ry="7.566" transform="translate(1240.972 26.714)"/>
  </g>
</svg>
