<?xml version="1.0" encoding="utf-8"?>
<!-- Generator: Adobe Illustrator 23.0.6, SVG Export Plug-In . SVG Version: 6.00 Build 0)  -->
<svg version="1.1" id="Capa_1" xmlns="http://www.w3.org/2000/svg" xmlns:xlink="http://www.w3.org/1999/xlink" x="0px" y="0px"
	 viewBox="0 0 512 512" style="enable-background:new 0 0 512 512;" xml:space="preserve">
<style type="text/css">
	.st0{fill:#CCCCCC;}
</style>
<circle class="st0" cx="386" cy="210" r="20"/>
<path class="st0" d="M432,40h-26V20c0-11-9-20-20-20s-20,9-20,20v20h-91V20c0-11-9-20-20-20c-11,0-20,9-20,20v20h-90V20
	c0-11-9-20-20-20s-20,9-20,20v20H80C35.9,40,0,75.9,0,120v312c0,44.1,35.9,80,80,80h201.9c11,0,20-9,20-20s-9-20-20-20H80
	c-22.1,0-40-17.9-40-40V120c0-22.1,17.9-40,40-40h25v20c0,11,9,20,20,20s20-9,20-20V80h90v20c0,11,9,20,20,20c11,0,20-9,20-20V80h91
	v20c0,11,9,20,20,20s20-9,20-20V80h26c22.1,0,40,17.9,40,40v167c0,11,9,20,20,20s20-9,20-20V120C512,75.9,476.1,40,432,40z"/>
<circle class="st0" cx="299" cy="210" r="20"/>
<circle class="st0" cx="212" cy="297" r="20"/>
<circle class="st0" cx="125" cy="210" r="20"/>
<circle class="st0" cx="125" cy="297" r="20"/>
<circle class="st0" cx="125" cy="384" r="20"/>
<circle class="st0" cx="212" cy="384" r="20"/>
<circle class="st0" cx="212" cy="210" r="20"/>
<path class="st0" d="M374.3,464.3L374.3,464.3c-14,0-25.3-11.3-25.3-25.3V334.3c0-14,11.3-25.3,25.3-25.3h0
	c14,0,25.3,11.3,25.3,25.3V439C399.6,453,388.3,464.3,374.3,464.3z"/>
<path class="st0" d="M452.1,324.8l-60.3-60.3c-0.4-0.4-0.7-0.8-1.1-1.2c-0.3-0.3-0.6-0.6-0.9-1l-0.1-0.1c-4.3-4.3-9.8-6.4-15.4-6.4
	c-5.6,0-11.2,2.1-15.4,6.4l-0.1,0.1c-0.3,0.3-0.6,0.6-0.9,1c-0.4,0.4-0.7,0.8-1.1,1.2l-60.3,60.3c-8.5,8.5-8.5,22.2,0,30.7l0,0
	c8.5,8.5,22.2,8.5,30.7,0l31.6-31.6c8.5-8.5,22.2-8.5,30.7,0l31.6,31.6c8.5,8.5,22.2,8.5,30.7,0l0,0
	C460.6,347.1,460.6,333.3,452.1,324.8z"/>
</svg>
