<?xml version="1.0" encoding="utf-8"?>
<!-- Generator: Adobe Illustrator 23.0.6, SVG Export Plug-In . SVG Version: 6.00 Build 0)  -->
<svg version="1.1" id="Layer_1" xmlns="http://www.w3.org/2000/svg" xmlns:xlink="http://www.w3.org/1999/xlink" x="0px" y="0px"
	 viewBox="0 0 1080 1080" style="enable-background:new 0 0 1080 1080;" xml:space="preserve">
<style type="text/css">
	.st0{fill: rgba(255, 109, 0, .8);}
</style>
<path class="st0" d="M438.9,341.6c8.1,5.5,257.5-173.5,512.1,51.5c10.3,9,10.8,27.2,10.8,43.4c0,21.3-9.1,39.3-21.7,48.7
	c-23,17.3-65,18.9-88.1-1.4c-23-20.3-98.8-93.5-243.9-62.3S394.5,593.4,405,698c14.8,147.7,119.2,247.9,277.8,247.9
	c140.9,0,246-123.8,257.5-249.2c2.7-29.8,24.4-56.8,65-56.8c23.1,0,65,13.5,65,67.8c0,65-59.6,311.6-323.8,364.4
	c-71.4,14.3-204.9-5.7-272.3-44.7C422.5,997.5,51,802.9,33.7,790.3c-20.3-14.8-31.2-55.6-14.8-82.6c16.2-27.2,42-39.3,73.2-32.5
	c31.2,6.9,147.4,57.7,150.4,52.8c4.1-6.7-193.8-369.9-203.2-392.9s5.5-67.8,31.2-79.9c25.8-12.2,66.4-9.5,86.7,21.7
	s119.3,233,124.6,233c5.5,0,35.3-432.7,35.3-444.4c0-10.8,10.8-62.3,67.8-62.3s65,54.2,65,56.8C449.8,62.7,430.8,336.2,438.9,341.6z
	"/>
<path class="st0" d="M525.6,571.8L525.6,571.8c42.4-43.1,111-43.1,153.4,0l0,0c1.1,1.1,2.2,2.3,3.3,3.4l0.1-0.1l0.1,0.1
	c1-1.1,2.2-2.3,3.3-3.4l0,0c42.4-43.1,111-43.1,153.4,0l0,0c42.4,43.1,42.4,113.2,0,156.5l0,0c-1.1,1.1-121.9,124.4-121.9,124.4
	c-19.2,19.5-50.4,19.5-69.5,0c0,0-120.8-123.2-121.9-124.4l0,0C483.2,685,483.2,615.1,525.6,571.8z"/>
</svg>
