<?xml version="1.0" encoding="utf-8"?>
<!-- Generator: Adobe Illustrator 23.0.6, SVG Export Plug-In . SVG Version: 6.00 Build 0)  -->
<svg version="1.1" id="Capa_1" xmlns="http://www.w3.org/2000/svg" xmlns:xlink="http://www.w3.org/1999/xlink" x="0px" y="0px"
	 viewBox="0 0 512 512" style="enable-background:new 0 0 512 512;" xml:space="preserve">
<style type="text/css">
	.st0{fill:#666666;}
</style>
<path class="st0" d="M342.4,458.4H74v-84.5c0.1-41.2,33.4-74.5,74.6-74.6h97.7h5c81.6,0.3,148.1-65.6,148.4-147.2
	C400,70.5,334.1,4.1,252.5,3.7S104.4,69.3,104,150.9c-0.1,36.4,13.1,71.5,37.3,98.7c-65.8,3.9-117.1,58.4-117,124.3v109.4
	c0,13.7,11.1,24.9,24.9,24.9h293.3c13.7,0,24.9-11.1,24.9-24.9S356.1,458.4,342.4,458.4z M251.2,54.8c53.8,1.5,96.2,46.4,94.7,100.3
	c-1.4,50.6-41.4,91.7-91.9,94.6h-7.8c-53.8-3.4-94.6-49.7-91.2-103.5C158.2,95.3,200.2,55.4,251.2,54.8z"/>
<path class="st0" d="M135,483.4c0,13.7,11.1,24.9,24.9,24.9h293.3c13.7,0,24.9-11.1,24.9-24.9V374c0.1-65.9-51.3-120.4-117-124.3
	c24.1-27.2,37.4-62.4,37.3-98.7C397.9,69.4,331.5,3.4,249.8,3.8S102.3,70.6,102.6,152.2c0.3,81.7,66.8,147.6,148.4,147.2h5h97.7
	c41.2,0.1,74.5,33.4,74.6,74.6v84.5H159.9C146.1,458.5,135,469.6,135,483.4z M347.2,146.3c3.4,53.8-37.5,100.1-91.2,103.5h-7.8
	c-50.5-2.9-90.5-44-91.9-94.6c-1.5-53.8,40.9-98.7,94.7-100.3C302.1,55.5,344,95.3,347.2,146.3z"/>
</svg>
