<svg xmlns="http://www.w3.org/2000/svg" viewBox="0 0 22.083 21.863">
  <defs>
    <style>
      .cls-1 {
        fill: #FDFDFD;
      }
      .cls-2, .cls-4 {
        fill: #000;
      }

      .cls-2 {
        stroke: #000;
      }
    </style>
  </defs>
  <g id="Group_11" data-name="Group 11" transform="translate(-1443.43 -30.351)">
    <g id="Path_1" data-name="Path 1" class="cls-1" transform="translate(1443.43 40.358) rotate(-45)">
      <path class="cls-3" d="M 7.076296806335449 13.15265560150146 C 5.4532470703125 13.15265560150146 3.92734694480896 12.52061557769775 2.77968692779541 11.37295627593994 C 1.632016777992249 10.22528553009033 0.9999768137931824 8.699385643005371 0.9999768137931824 7.076335906982422 C 0.9999968409538269 3.725825786590576 3.725836753845215 0.9999858736991882 7.076336860656738 0.999975860118866 C 8.699386596679688 0.999975860118866 10.22528648376465 1.632015824317932 11.37295722961426 2.779685974121094 C 12.52061653137207 3.927345991134644 13.15265655517578 5.453246116638184 13.15265655517578 7.076295852661133 C 13.15264701843262 10.42680549621582 10.42680644989014 13.1526460647583 7.076296806335449 13.15265560150146 Z"/>
      <path class="cls-4" d="M 7.076346874237061 1.99997615814209 C 4.277236938476563 1.999985694885254 1.99998664855957 4.277235984802246 1.999977111816406 7.076345920562744 C 1.999977111816406 8.432275772094727 2.527997016906738 9.707056045532227 3.486786842346191 10.66584587097168 C 4.445576667785645 11.62463569641113 5.720356941223145 12.15265560150146 7.076286792755127 12.15265560150146 C 9.875396728515625 12.1526460647583 12.15264701843262 9.875395774841309 12.15265655517578 7.076285839080811 C 12.15265655517578 5.720355987548828 11.62463665008545 4.445575714111328 10.665846824646 3.486785888671875 C 9.707056999206543 2.527996063232422 8.432276725769043 1.99997615814209 7.076346874237061 1.99997615814209 M 7.076336860656738 -2.384185791015625e-05 C 10.9844970703125 -3.4332275390625e-05 14.15266704559326 3.168146133422852 14.15265655517578 7.076295852661133 C 14.15264701843262 10.98444557189941 10.98444652557373 14.1526460647583 7.076296806335449 14.15265560150146 C 3.168147087097168 14.15266609191895 -3.337860107421875e-05 10.98449611663818 -2.288818359375e-05 7.076335906982422 C -1.33514404296875e-05 3.168186187744141 3.168187141418457 -1.430511474609375e-05 7.076336860656738 -2.384185791015625e-05 Z"/>
    </g>
    <g id="Rectangle_3" data-name="Rectangle 3" class="cls-2" transform="translate(1458.381 43.611) rotate(45)">
      <rect class="cls-3" width="10.087" height="2.079" rx="1.039"/>
      <rect class="cls-5" x="0.5" y="0.5" width="9.087" height="1.079" rx="0.539"/>
    </g>
  </g>
</svg>
