<svg xmlns="http://www.w3.org/2000/svg" viewBox="0 0 29.611 29.611">
  <defs>
    <style>
      .cls-1 {
        fill: #fff;
      }
    </style>
  </defs>
  <g id="settings" transform="translate(0 -0.001)">
    <path id="Path_4" data-name="Path 4" class="cls-1" d="M28.1,11.7l-2.078-.353a11.736,11.736,0,0,0-.835-2.017l1.225-1.713a1.824,1.824,0,0,0-.2-2.357L24.365,3.416a1.816,1.816,0,0,0-1.293-.538,1.8,1.8,0,0,0-1.058.34L20.3,4.442a11.614,11.614,0,0,0-2.091-.86l-.346-2.054A1.827,1.827,0,0,0,16.052,0h-2.6a1.827,1.827,0,0,0-1.806,1.528l-.359,2.1a11.447,11.447,0,0,0-2.01.847l-1.7-1.225a1.827,1.827,0,0,0-2.357.2L3.365,5.3a1.831,1.831,0,0,0-.2,2.357L4.4,9.391a11.463,11.463,0,0,0-.823,2.023l-2.054.346A1.827,1.827,0,0,0,0,13.566v2.6a1.827,1.827,0,0,0,1.528,1.806l2.1.359a11.447,11.447,0,0,0,.847,2.01L3.26,22.041a1.824,1.824,0,0,0,.2,2.357L5.3,26.241a1.816,1.816,0,0,0,1.293.538,1.8,1.8,0,0,0,1.058-.34L9.39,25.2a11.7,11.7,0,0,0,1.955.8l.346,2.078A1.827,1.827,0,0,0,13.5,29.612h2.61a1.827,1.827,0,0,0,1.806-1.528l.353-2.078a11.736,11.736,0,0,0,2.017-.835L22,26.4a1.816,1.816,0,0,0,1.064.34h0a1.816,1.816,0,0,0,1.293-.538L26.2,24.354a1.831,1.831,0,0,0,.2-2.357l-1.225-1.72A11.652,11.652,0,0,0,26,18.261l2.078-.346a1.827,1.827,0,0,0,1.528-1.806V13.5A1.805,1.805,0,0,0,28.1,11.7Zm-.142,4.41a.16.16,0,0,1-.136.161l-2.6.433a.83.83,0,0,0-.668.612,9.9,9.9,0,0,1-1.076,2.592.836.836,0,0,0,.037.909l1.528,2.153a.168.168,0,0,1-.019.21l-1.843,1.843a.157.157,0,0,1-.118.049.152.152,0,0,1-.093-.031l-2.146-1.528a.836.836,0,0,0-.909-.037,9.9,9.9,0,0,1-2.592,1.076.821.821,0,0,0-.612.668l-.439,2.6a.16.16,0,0,1-.161.136H13.5a.16.16,0,0,1-.161-.136l-.433-2.6a.83.83,0,0,0-.612-.668,10.282,10.282,0,0,1-2.536-1.039A.856.856,0,0,0,9.34,23.4a.815.815,0,0,0-.482.155L6.693,25.1a.184.184,0,0,1-.093.031.166.166,0,0,1-.118-.049L4.639,23.235a.168.168,0,0,1-.019-.21L6.142,20.89a.847.847,0,0,0,.037-.915,9.809,9.809,0,0,1-1.089-2.586.847.847,0,0,0-.668-.612l-2.617-.445a.16.16,0,0,1-.136-.161v-2.6a.16.16,0,0,1,.136-.161l2.579-.433a.836.836,0,0,0,.674-.619,9.892,9.892,0,0,1,1.058-2.6.826.826,0,0,0-.043-.9L4.534,6.688a.168.168,0,0,1,.019-.21L6.4,4.634a.157.157,0,0,1,.118-.049.152.152,0,0,1,.093.031L8.74,6.137a.847.847,0,0,0,.915.037,9.809,9.809,0,0,1,2.586-1.089.847.847,0,0,0,.612-.668L13.3,1.8a.16.16,0,0,1,.161-.136h2.6a.16.16,0,0,1,.161.136l.433,2.579a.836.836,0,0,0,.619.674A10.04,10.04,0,0,1,19.93,6.143a.836.836,0,0,0,.909-.037l2.134-1.534a.184.184,0,0,1,.093-.031.166.166,0,0,1,.118.049l1.843,1.843a.168.168,0,0,1,.019.21L23.518,8.791a.836.836,0,0,0-.037.909,9.9,9.9,0,0,1,1.076,2.592.821.821,0,0,0,.668.612l2.6.439a.16.16,0,0,1,.136.161v2.6Z" transform="translate(0 0)"/>
    <path id="Path_5" data-name="Path 5" class="cls-1" d="M142.49,136a6.39,6.39,0,1,0,6.39,6.39A6.394,6.394,0,0,0,142.49,136Zm0,11.11a4.72,4.72,0,1,1,4.72-4.72A4.723,4.723,0,0,1,142.49,147.111Z" transform="translate(-127.681 -127.587)"/>
  </g>
</svg>
