<?xml version="1.0" encoding="utf-8"?>
<!-- Generator: Adobe Illustrator 23.0.6, SVG Export Plug-In . SVG Version: 6.00 Build 0)  -->
<svg version="1.1" id="Layer_1" xmlns="http://www.w3.org/2000/svg" xmlns:xlink="http://www.w3.org/1999/xlink" x="0px" y="0px"
	 viewBox="0 0 1080 1080" style="enable-background:new 0 0 1080 1080;" xml:space="preserve">
<style type="text/css">
	.st0{fill:#CCCCCC;}
</style>
<path class="st0" d="M1018.1,1012.5h-1.3v-660c0-17.3-14-31.2-31.2-31.2H860.7c-17.3,0-31.2,14-31.2,31.2v660H767V539.9
	c0-17.3-14-31.2-31.2-31.2H610.8c-17.3,0-31.2,14-31.2,31.2v472.6h-62.5V679.8c0-17.3-14-31.2-31.2-31.2H361
	c-17.3,0-31.2,14-31.2,31.2v332.8h-62.5V789.8c0-17.3-14-31.2-31.2-31.2H111.1c-17.3,0-31.2,14-31.2,31.2v222.7h-7.3
	c-17.3,0-31.2,14-31.2,31.2s14,31.2,31.2,31.2h945.5c17.3,0,31.2-14,31.2-31.2S1035.4,1012.5,1018.1,1012.5z"/>
<path class="st0" d="M905,21c-50.8,0-92,41.2-92,92c0,10.7,1.8,21,5.2,30.5l-101.1,74.6c-16.4-15-38.2-24.1-62.1-24.1
	c-49.7,0-90.1,39.3-91.9,88.6l-107.7,47.9C439,315.9,417.6,307,394,307c-50.8,0-92,41.2-92,92c0,5,0.4,9.9,1.2,14.6l-91.1,72.9
	c-16-13.4-36.6-21.5-59.1-21.5c-50.8,0-92,41.2-92,92c0,50.8,41.2,92,92,92s92-41.2,92-92c0-8.3-1.1-16.3-3.2-23.9l86.7-69.4
	c16.7,16.9,39.8,27.3,65.4,27.3c50.8,0,92-41.2,92-92c0-7.2-0.8-14.2-2.4-21l94.3-41.9c16.4,25.2,44.8,41.8,77.1,41.8
	c50.8,0,92-41.2,92-92c0-6.9-0.8-13.5-2.2-20l106.3-78.5c15.1,11,33.8,17.4,53.9,17.4c50.8,0,92-41.2,92-92
	C997,62.2,955.8,21,905,21z"/>
</svg>
